<mxfile host="app.diagrams.net" modified="2020-09-17T10:27:27.717Z" agent="5.0 (X11; Linux x86_64) AppleWebKit/537.36 (KHTML, like Gecko) Chrome/81.0.4044.138 Safari/537.36" etag="1n-vJCsnuJx0YR1LrlOR" version="13.7.2" type="github">
  <diagram id="C5RBs43oDa-KdzZeNtuy" name="Page-1">
    <mxGraphModel dx="942" dy="621" grid="1" gridSize="10" guides="1" tooltips="1" connect="1" arrows="1" fold="1" page="1" pageScale="1" pageWidth="827" pageHeight="1169" background="#F1FAEE" math="0" shadow="0">
      <root>
        <mxCell id="WIyWlLk6GJQsqaUBKTNV-0" />
        <mxCell id="WIyWlLk6GJQsqaUBKTNV-1" parent="WIyWlLk6GJQsqaUBKTNV-0" />
        <mxCell id="QxxD9a5CunwgjTTWQ43J-58" value="" style="edgeStyle=none;rounded=0;orthogonalLoop=1;jettySize=auto;html=1;labelBackgroundColor=#F1FAEE;strokeColor=#457B9D;fontColor=#1D3557;" edge="1" parent="WIyWlLk6GJQsqaUBKTNV-1" source="WIyWlLk6GJQsqaUBKTNV-3" target="WIyWlLk6GJQsqaUBKTNV-7">
          <mxGeometry relative="1" as="geometry" />
        </mxCell>
        <mxCell id="WIyWlLk6GJQsqaUBKTNV-3" value="table client" style="rounded=1;whiteSpace=wrap;html=1;fontSize=12;glass=0;strokeWidth=1;shadow=0;strokeColor=#457B9D;fillColor=#A8DADC;fontColor=#1D3557;" parent="WIyWlLk6GJQsqaUBKTNV-1" vertex="1">
          <mxGeometry x="160" y="50" width="120" height="40" as="geometry" />
        </mxCell>
        <mxCell id="WIyWlLk6GJQsqaUBKTNV-7" value="esb" style="rounded=1;whiteSpace=wrap;html=1;fontSize=12;glass=0;strokeWidth=1;shadow=0;fillColor=#A8DADC;strokeColor=#457B9D;fontColor=#1D3557;" parent="WIyWlLk6GJQsqaUBKTNV-1" vertex="1">
          <mxGeometry x="171.5" y="249.5" width="98" height="40" as="geometry" />
        </mxCell>
        <mxCell id="QxxD9a5CunwgjTTWQ43J-3" value="" style="edgeStyle=orthogonalEdgeStyle;rounded=0;orthogonalLoop=1;jettySize=auto;html=1;exitX=1;exitY=0;exitDx=0;exitDy=0;exitPerimeter=0;labelBackgroundColor=#F1FAEE;strokeColor=#457B9D;fontColor=#1D3557;" edge="1" parent="WIyWlLk6GJQsqaUBKTNV-1">
          <mxGeometry relative="1" as="geometry">
            <mxPoint x="318.5" y="139" as="sourcePoint" />
            <mxPoint x="371" y="140" as="targetPoint" />
            <Array as="points">
              <mxPoint x="330" y="140" />
              <mxPoint x="330" y="140" />
            </Array>
          </mxGeometry>
        </mxCell>
        <mxCell id="QxxD9a5CunwgjTTWQ43J-57" style="edgeStyle=none;rounded=0;orthogonalLoop=1;jettySize=auto;html=1;exitX=1;exitY=1;exitDx=0;exitDy=0;exitPerimeter=0;entryX=0;entryY=0.5;entryDx=0;entryDy=0;labelBackgroundColor=#F1FAEE;strokeColor=#457B9D;fontColor=#1D3557;" edge="1" parent="WIyWlLk6GJQsqaUBKTNV-1" source="QxxD9a5CunwgjTTWQ43J-1" target="QxxD9a5CunwgjTTWQ43J-11">
          <mxGeometry relative="1" as="geometry" />
        </mxCell>
        <mxCell id="QxxD9a5CunwgjTTWQ43J-1" value="" style="strokeWidth=1;html=1;shape=mxgraph.flowchart.annotation_2;align=left;labelPosition=right;pointerEvents=1;fillColor=#A8DADC;strokeColor=#457B9D;fontColor=#1D3557;" vertex="1" parent="WIyWlLk6GJQsqaUBKTNV-1">
          <mxGeometry x="268.5" y="140" width="50" height="259" as="geometry" />
        </mxCell>
        <mxCell id="QxxD9a5CunwgjTTWQ43J-2" value="in-sequence" style="whiteSpace=wrap;html=1;align=center;strokeWidth=1;rounded=1;fillColor=#A8DADC;strokeColor=#457B9D;fontColor=#1D3557;" vertex="1" parent="WIyWlLk6GJQsqaUBKTNV-1">
          <mxGeometry x="371" y="126" width="86" height="30" as="geometry" />
        </mxCell>
        <mxCell id="QxxD9a5CunwgjTTWQ43J-47" value="" style="edgeStyle=none;rounded=0;orthogonalLoop=1;jettySize=auto;html=1;labelBackgroundColor=#F1FAEE;strokeColor=#457B9D;fontColor=#1D3557;" edge="1" parent="WIyWlLk6GJQsqaUBKTNV-1" source="QxxD9a5CunwgjTTWQ43J-4" target="QxxD9a5CunwgjTTWQ43J-46">
          <mxGeometry relative="1" as="geometry" />
        </mxCell>
        <mxCell id="QxxD9a5CunwgjTTWQ43J-4" value="&lt;b&gt;...&lt;/b&gt;" style="shape=process;whiteSpace=wrap;html=1;backgroundOutline=1;strokeWidth=1;rounded=1;fillColor=#A8DADC;strokeColor=#457B9D;fontColor=#1D3557;" vertex="1" parent="WIyWlLk6GJQsqaUBKTNV-1">
          <mxGeometry x="641" y="127" width="70" height="29" as="geometry" />
        </mxCell>
        <mxCell id="QxxD9a5CunwgjTTWQ43J-10" value="core logic" style="endArrow=classic;html=1;entryX=1;entryY=0.5;entryDx=0;entryDy=0;exitX=0.5;exitY=0;exitDx=0;exitDy=0;fillColor=#A8DADC;strokeColor=#457B9D;labelBackgroundColor=#F1FAEE;fontColor=#1D3557;" edge="1" parent="WIyWlLk6GJQsqaUBKTNV-1" source="QxxD9a5CunwgjTTWQ43J-4">
          <mxGeometry width="50" height="50" relative="1" as="geometry">
            <mxPoint x="676" y="97" as="sourcePoint" />
            <mxPoint x="280" y="70" as="targetPoint" />
            <Array as="points">
              <mxPoint x="676" y="70" />
            </Array>
          </mxGeometry>
        </mxCell>
        <mxCell id="QxxD9a5CunwgjTTWQ43J-27" value="" style="edgeStyle=none;rounded=0;orthogonalLoop=1;jettySize=auto;html=1;labelBackgroundColor=#F1FAEE;strokeColor=#457B9D;fontColor=#1D3557;" edge="1" parent="WIyWlLk6GJQsqaUBKTNV-1" source="QxxD9a5CunwgjTTWQ43J-11" target="QxxD9a5CunwgjTTWQ43J-28">
          <mxGeometry relative="1" as="geometry">
            <mxPoint x="395.52631578947376" y="475" as="targetPoint" />
          </mxGeometry>
        </mxCell>
        <mxCell id="QxxD9a5CunwgjTTWQ43J-11" value="in-sequence" style="whiteSpace=wrap;html=1;align=center;strokeWidth=1;fillColor=#A8DADC;strokeColor=#457B9D;fontColor=#1D3557;" vertex="1" parent="WIyWlLk6GJQsqaUBKTNV-1">
          <mxGeometry x="350" y="384" width="86" height="30" as="geometry" />
        </mxCell>
        <mxCell id="QxxD9a5CunwgjTTWQ43J-13" value="" style="endArrow=classic;html=1;exitX=1;exitY=0.5;exitDx=0;exitDy=0;labelBackgroundColor=#F1FAEE;strokeColor=#457B9D;fontColor=#1D3557;" edge="1" parent="WIyWlLk6GJQsqaUBKTNV-1" source="QxxD9a5CunwgjTTWQ43J-2">
          <mxGeometry width="50" height="50" relative="1" as="geometry">
            <mxPoint x="470" y="191" as="sourcePoint" />
            <mxPoint x="520" y="141" as="targetPoint" />
          </mxGeometry>
        </mxCell>
        <mxCell id="QxxD9a5CunwgjTTWQ43J-25" style="rounded=0;orthogonalLoop=1;jettySize=auto;html=1;exitX=1;exitY=0.5;exitDx=0;exitDy=0;entryX=0;entryY=0.5;entryDx=0;entryDy=0;entryPerimeter=0;labelBackgroundColor=#F1FAEE;strokeColor=#457B9D;fontColor=#1D3557;" edge="1" parent="WIyWlLk6GJQsqaUBKTNV-1" source="QxxD9a5CunwgjTTWQ43J-11" target="QxxD9a5CunwgjTTWQ43J-15">
          <mxGeometry relative="1" as="geometry" />
        </mxCell>
        <mxCell id="QxxD9a5CunwgjTTWQ43J-15" value="" style="strokeWidth=1;html=1;shape=mxgraph.flowchart.annotation_2;align=left;labelPosition=right;pointerEvents=1;fillColor=#A8DADC;strokeColor=#457B9D;fontColor=#1D3557;" vertex="1" parent="WIyWlLk6GJQsqaUBKTNV-1">
          <mxGeometry x="496" y="215" width="50" height="369" as="geometry" />
        </mxCell>
        <mxCell id="QxxD9a5CunwgjTTWQ43J-17" value="" style="endArrow=none;html=1;entryX=1;entryY=0.5;entryDx=0;entryDy=0;entryPerimeter=0;labelBackgroundColor=#F1FAEE;strokeColor=#457B9D;fontColor=#1D3557;" edge="1" parent="WIyWlLk6GJQsqaUBKTNV-1">
          <mxGeometry width="50" height="50" relative="1" as="geometry">
            <mxPoint x="521" y="326" as="sourcePoint" />
            <mxPoint x="547" y="326" as="targetPoint" />
          </mxGeometry>
        </mxCell>
        <mxCell id="QxxD9a5CunwgjTTWQ43J-24" value="" style="edgeStyle=orthogonalEdgeStyle;rounded=0;orthogonalLoop=1;jettySize=auto;html=1;labelBackgroundColor=#F1FAEE;strokeColor=#457B9D;fontColor=#1D3557;" edge="1" parent="WIyWlLk6GJQsqaUBKTNV-1" source="QxxD9a5CunwgjTTWQ43J-21" target="QxxD9a5CunwgjTTWQ43J-4">
          <mxGeometry relative="1" as="geometry" />
        </mxCell>
        <mxCell id="QxxD9a5CunwgjTTWQ43J-21" value="table service" style="whiteSpace=wrap;html=1;align=center;strokeWidth=1;rounded=1;fillColor=#A8DADC;strokeColor=#457B9D;fontColor=#1D3557;" vertex="1" parent="WIyWlLk6GJQsqaUBKTNV-1">
          <mxGeometry x="520" y="126" width="86" height="30" as="geometry" />
        </mxCell>
        <mxCell id="QxxD9a5CunwgjTTWQ43J-28" value="esb" style="whiteSpace=wrap;html=1;align=center;strokeWidth=1;fillColor=#A8DADC;strokeColor=#457B9D;fontColor=#1D3557;" vertex="1" parent="WIyWlLk6GJQsqaUBKTNV-1">
          <mxGeometry x="350" y="521" width="86" height="30" as="geometry" />
        </mxCell>
        <mxCell id="QxxD9a5CunwgjTTWQ43J-31" value="rabbit mq" style="whiteSpace=wrap;html=1;align=center;strokeWidth=1;fillColor=#A8DADC;strokeColor=#457B9D;fontColor=#1D3557;" vertex="1" parent="WIyWlLk6GJQsqaUBKTNV-1">
          <mxGeometry x="546" y="200" width="86" height="30" as="geometry" />
        </mxCell>
        <mxCell id="QxxD9a5CunwgjTTWQ43J-52" style="edgeStyle=none;rounded=0;orthogonalLoop=1;jettySize=auto;html=1;entryX=0;entryY=0.5;entryDx=0;entryDy=0;entryPerimeter=0;labelBackgroundColor=#F1FAEE;strokeColor=#457B9D;fontColor=#1D3557;" edge="1" parent="WIyWlLk6GJQsqaUBKTNV-1" source="QxxD9a5CunwgjTTWQ43J-32" target="QxxD9a5CunwgjTTWQ43J-53">
          <mxGeometry relative="1" as="geometry">
            <mxPoint x="660" y="325" as="targetPoint" />
          </mxGeometry>
        </mxCell>
        <mxCell id="QxxD9a5CunwgjTTWQ43J-32" value="dss" style="whiteSpace=wrap;html=1;align=center;strokeWidth=1;fillColor=#A8DADC;strokeColor=#457B9D;fontColor=#1D3557;" vertex="1" parent="WIyWlLk6GJQsqaUBKTNV-1">
          <mxGeometry x="546" y="310" width="86" height="30" as="geometry" />
        </mxCell>
        <mxCell id="QxxD9a5CunwgjTTWQ43J-64" value="" style="edgeStyle=none;rounded=0;orthogonalLoop=1;jettySize=auto;html=1;labelBackgroundColor=#F1FAEE;strokeColor=#457B9D;fontColor=#1D3557;" edge="1" parent="WIyWlLk6GJQsqaUBKTNV-1" source="QxxD9a5CunwgjTTWQ43J-33">
          <mxGeometry relative="1" as="geometry">
            <mxPoint x="680" y="583" as="targetPoint" />
          </mxGeometry>
        </mxCell>
        <mxCell id="QxxD9a5CunwgjTTWQ43J-33" value="is" style="whiteSpace=wrap;html=1;align=center;strokeWidth=1;fillColor=#A8DADC;strokeColor=#457B9D;fontColor=#1D3557;" vertex="1" parent="WIyWlLk6GJQsqaUBKTNV-1">
          <mxGeometry x="546" y="569" width="86" height="30" as="geometry" />
        </mxCell>
        <mxCell id="QxxD9a5CunwgjTTWQ43J-38" style="edgeStyle=none;rounded=0;orthogonalLoop=1;jettySize=auto;html=1;labelBackgroundColor=#F1FAEE;strokeColor=#457B9D;fontColor=#1D3557;" edge="1" parent="WIyWlLk6GJQsqaUBKTNV-1">
          <mxGeometry relative="1" as="geometry">
            <mxPoint x="662" y="216" as="targetPoint" />
            <mxPoint x="632" y="216" as="sourcePoint" />
          </mxGeometry>
        </mxCell>
        <mxCell id="QxxD9a5CunwgjTTWQ43J-42" value="" style="edgeStyle=none;rounded=0;orthogonalLoop=1;jettySize=auto;html=1;labelBackgroundColor=#F1FAEE;strokeColor=#457B9D;fontColor=#1D3557;" edge="1" parent="WIyWlLk6GJQsqaUBKTNV-1" source="QxxD9a5CunwgjTTWQ43J-36" target="QxxD9a5CunwgjTTWQ43J-40">
          <mxGeometry relative="1" as="geometry" />
        </mxCell>
        <mxCell id="QxxD9a5CunwgjTTWQ43J-36" value="connector" style="whiteSpace=wrap;html=1;align=center;strokeWidth=1;fillColor=#A8DADC;strokeColor=#457B9D;fontColor=#1D3557;" vertex="1" parent="WIyWlLk6GJQsqaUBKTNV-1">
          <mxGeometry x="661" y="201" width="86" height="30" as="geometry" />
        </mxCell>
        <mxCell id="QxxD9a5CunwgjTTWQ43J-44" value="" style="edgeStyle=none;rounded=0;orthogonalLoop=1;jettySize=auto;html=1;labelBackgroundColor=#F1FAEE;strokeColor=#457B9D;fontColor=#1D3557;" edge="1" parent="WIyWlLk6GJQsqaUBKTNV-1" source="QxxD9a5CunwgjTTWQ43J-40">
          <mxGeometry relative="1" as="geometry">
            <mxPoint x="900" y="218" as="targetPoint" />
          </mxGeometry>
        </mxCell>
        <mxCell id="QxxD9a5CunwgjTTWQ43J-40" value="casino data service" style="whiteSpace=wrap;html=1;align=center;strokeWidth=1;fillColor=#A8DADC;strokeColor=#457B9D;fontColor=#1D3557;" vertex="1" parent="WIyWlLk6GJQsqaUBKTNV-1">
          <mxGeometry x="780" y="200" width="90" height="35" as="geometry" />
        </mxCell>
        <mxCell id="QxxD9a5CunwgjTTWQ43J-45" value="&lt;br&gt;camp db" style="strokeWidth=2;html=1;shape=mxgraph.flowchart.database;whiteSpace=wrap;fillColor=#A8DADC;strokeColor=#457B9D;fontColor=#1D3557;" vertex="1" parent="WIyWlLk6GJQsqaUBKTNV-1">
          <mxGeometry x="901" y="187" width="60" height="60" as="geometry" />
        </mxCell>
        <mxCell id="QxxD9a5CunwgjTTWQ43J-46" value="&lt;br&gt;camp db" style="strokeWidth=2;html=1;shape=mxgraph.flowchart.database;whiteSpace=wrap;fillColor=#A8DADC;strokeColor=#457B9D;fontColor=#1D3557;" vertex="1" parent="WIyWlLk6GJQsqaUBKTNV-1">
          <mxGeometry x="760" y="113" width="61" height="52" as="geometry" />
        </mxCell>
        <mxCell id="QxxD9a5CunwgjTTWQ43J-62" value="agent job" style="edgeStyle=none;rounded=0;orthogonalLoop=1;jettySize=auto;html=1;labelBackgroundColor=#F1FAEE;strokeColor=#457B9D;fontColor=#1D3557;" edge="1" parent="WIyWlLk6GJQsqaUBKTNV-1" source="QxxD9a5CunwgjTTWQ43J-53" target="QxxD9a5CunwgjTTWQ43J-61">
          <mxGeometry relative="1" as="geometry" />
        </mxCell>
        <mxCell id="QxxD9a5CunwgjTTWQ43J-53" value="&lt;br&gt;dw db" style="strokeWidth=2;html=1;shape=mxgraph.flowchart.database;whiteSpace=wrap;fillColor=#A8DADC;strokeColor=#457B9D;fontColor=#1D3557;" vertex="1" parent="WIyWlLk6GJQsqaUBKTNV-1">
          <mxGeometry x="674" y="295" width="60" height="60" as="geometry" />
        </mxCell>
        <mxCell id="QxxD9a5CunwgjTTWQ43J-61" value="&lt;br&gt;camp db" style="strokeWidth=2;html=1;shape=mxgraph.flowchart.database;whiteSpace=wrap;fillColor=#A8DADC;strokeColor=#457B9D;fontColor=#1D3557;" vertex="1" parent="WIyWlLk6GJQsqaUBKTNV-1">
          <mxGeometry x="821" y="295" width="60" height="60" as="geometry" />
        </mxCell>
        <mxCell id="QxxD9a5CunwgjTTWQ43J-65" value="&lt;br&gt;appache ds" style="strokeWidth=2;html=1;shape=mxgraph.flowchart.database;whiteSpace=wrap;fillColor=#A8DADC;strokeColor=#457B9D;fontColor=#1D3557;" vertex="1" parent="WIyWlLk6GJQsqaUBKTNV-1">
          <mxGeometry x="682" y="551" width="60" height="60" as="geometry" />
        </mxCell>
        <mxCell id="QxxD9a5CunwgjTTWQ43J-68" style="edgeStyle=none;rounded=0;orthogonalLoop=1;jettySize=auto;html=1;exitX=0.5;exitY=1;exitDx=0;exitDy=0;exitPerimeter=0;labelBackgroundColor=#F1FAEE;strokeColor=#457B9D;fontColor=#1D3557;" edge="1" parent="WIyWlLk6GJQsqaUBKTNV-1" source="QxxD9a5CunwgjTTWQ43J-1" target="QxxD9a5CunwgjTTWQ43J-1">
          <mxGeometry relative="1" as="geometry" />
        </mxCell>
        <mxCell id="QxxD9a5CunwgjTTWQ43J-70" value="" style="endArrow=none;html=1;labelBackgroundColor=#F1FAEE;strokeColor=#457B9D;fontColor=#1D3557;" edge="1" parent="WIyWlLk6GJQsqaUBKTNV-1">
          <mxGeometry width="50" height="50" relative="1" as="geometry">
            <mxPoint x="550" y="440" as="sourcePoint" />
            <mxPoint x="521" y="440" as="targetPoint" />
          </mxGeometry>
        </mxCell>
        <mxCell id="QxxD9a5CunwgjTTWQ43J-73" value="" style="edgeStyle=none;rounded=0;orthogonalLoop=1;jettySize=auto;html=1;labelBackgroundColor=#F1FAEE;strokeColor=#457B9D;fontColor=#1D3557;" edge="1" parent="WIyWlLk6GJQsqaUBKTNV-1" source="QxxD9a5CunwgjTTWQ43J-71" target="QxxD9a5CunwgjTTWQ43J-72">
          <mxGeometry relative="1" as="geometry" />
        </mxCell>
        <mxCell id="QxxD9a5CunwgjTTWQ43J-71" value="api" style="whiteSpace=wrap;html=1;align=center;strokeWidth=1;fillColor=#A8DADC;strokeColor=#457B9D;fontColor=#1D3557;" vertex="1" parent="WIyWlLk6GJQsqaUBKTNV-1">
          <mxGeometry x="546" y="425" width="86" height="30" as="geometry" />
        </mxCell>
        <mxCell id="QxxD9a5CunwgjTTWQ43J-72" value="&lt;b&gt;...&lt;/b&gt;" style="shape=process;whiteSpace=wrap;html=1;backgroundOutline=1;strokeWidth=1;rounded=1;fillColor=#A8DADC;strokeColor=#457B9D;fontColor=#1D3557;" vertex="1" parent="WIyWlLk6GJQsqaUBKTNV-1">
          <mxGeometry x="669" y="426" width="70" height="29" as="geometry" />
        </mxCell>
        <mxCell id="QxxD9a5CunwgjTTWQ43J-76" value="" style="curved=1;endArrow=classic;html=1;exitX=0;exitY=0.5;exitDx=0;exitDy=0;entryX=0.5;entryY=1;entryDx=0;entryDy=0;labelBackgroundColor=#F1FAEE;strokeColor=#457B9D;fontColor=#1D3557;" edge="1" parent="WIyWlLk6GJQsqaUBKTNV-1" source="QxxD9a5CunwgjTTWQ43J-28" target="WIyWlLk6GJQsqaUBKTNV-7">
          <mxGeometry width="50" height="50" relative="1" as="geometry">
            <mxPoint x="190" y="530" as="sourcePoint" />
            <mxPoint x="240" y="480" as="targetPoint" />
            <Array as="points">
              <mxPoint x="210" y="550" />
            </Array>
          </mxGeometry>
        </mxCell>
        <mxCell id="QxxD9a5CunwgjTTWQ43J-81" value="&lt;h1&gt;&lt;div style=&quot;color: rgb(197 , 200 , 198) ; font-family: &amp;#34;droid sans mono&amp;#34; , monospace , monospace , &amp;#34;droid sans fallback&amp;#34; ; font-size: 14px ; font-weight: 400&quot;&gt;&lt;span style=&quot;color: rgb(154 , 168 , 58)&quot;&gt;1. Casino-DB:&lt;/span&gt;&lt;/div&gt;&lt;div style=&quot;color: rgb(197 , 200 , 198) ; font-family: &amp;#34;droid sans mono&amp;#34; , monospace , monospace , &amp;#34;droid sans fallback&amp;#34; ; font-size: 14px ; font-weight: 400&quot;&gt;&lt;span style=&quot;color: rgb(154 , 168 , 58)&quot;&gt;&amp;nbsp; - 数据来源: table service&lt;/span&gt;&lt;/div&gt;&lt;div style=&quot;color: rgb(197 , 200 , 198) ; font-family: &amp;#34;droid sans mono&amp;#34; , monospace , monospace , &amp;#34;droid sans fallback&amp;#34; ; font-size: 14px ; font-weight: 400&quot;&gt;&lt;span style=&quot;color: rgb(154 , 168 , 58)&quot;&gt;&amp;nbsp; - 作用: 主要记录 table 上的一切操作, 以及输赢&lt;/span&gt;&lt;span style=&quot;color: rgb(154 , 168 , 58)&quot;&gt;[最原始的数据]&lt;/span&gt;&lt;/div&gt;&lt;div style=&quot;color: rgb(197 , 200 , 198) ; font-family: &amp;#34;droid sans mono&amp;#34; , monospace , monospace , &amp;#34;droid sans fallback&amp;#34; ; font-size: 14px ; font-weight: 400&quot;&gt;&lt;span style=&quot;color: rgb(154 , 168 , 58)&quot;&gt;2. DW-DB:&lt;/span&gt;&lt;/div&gt;&lt;div style=&quot;color: rgb(197 , 200 , 198) ; font-family: &amp;#34;droid sans mono&amp;#34; , monospace , monospace , &amp;#34;droid sans fallback&amp;#34; ; font-size: 14px ; font-weight: 400&quot;&gt;&lt;span style=&quot;color: rgb(154 , 168 , 58)&quot;&gt;&amp;nbsp; - 数据来源: esb winloss sequence&lt;/span&gt;&lt;/div&gt;&lt;div style=&quot;color: rgb(197 , 200 , 198) ; font-family: &amp;#34;droid sans mono&amp;#34; , monospace , monospace , &amp;#34;droid sans fallback&amp;#34; ; font-size: 14px ; font-weight: 400&quot;&gt;&lt;span style=&quot;color: rgb(154 , 168 , 58)&quot;&gt;&amp;nbsp; - 作用: winloss 的存储&lt;/span&gt;&lt;/div&gt;&lt;div style=&quot;color: rgb(197 , 200 , 198) ; font-family: &amp;#34;droid sans mono&amp;#34; , monospace , monospace , &amp;#34;droid sans fallback&amp;#34; ; font-size: 14px ; font-weight: 400&quot;&gt;&lt;span style=&quot;color: rgb(154 , 168 , 58)&quot;&gt;3. Camp-DB&lt;/span&gt;&lt;/div&gt;&lt;br style=&quot;color: rgb(197 , 200 , 198) ; font-family: &amp;#34;droid sans mono&amp;#34; , monospace , monospace , &amp;#34;droid sans fallback&amp;#34; ; font-size: 14px ; font-weight: 400&quot;&gt;&lt;div style=&quot;color: rgb(197 , 200 , 198) ; font-family: &amp;#34;droid sans mono&amp;#34; , monospace , monospace , &amp;#34;droid sans fallback&amp;#34; ; font-size: 14px ; font-weight: 400&quot;&gt;&lt;span style=&quot;color: rgb(154 , 168 , 58)&quot;&gt;&amp;nbsp; - 数据来源:&amp;nbsp;&lt;/span&gt;&lt;span style=&quot;color: rgb(255 , 0 , 128)&quot;&gt;`casino data service`&lt;/span&gt;&lt;span style=&quot;color: rgb(154 , 168 , 58)&quot;&gt;&amp;nbsp;+&amp;nbsp;&lt;/span&gt;&lt;span style=&quot;color: rgb(255 , 0 , 128)&quot;&gt;`dw job`&lt;/span&gt;&lt;span style=&quot;color: rgb(154 , 168 , 58)&quot;&gt;&amp;nbsp;+&amp;nbsp;&lt;/span&gt;&lt;span style=&quot;color: rgb(255 , 0 , 128)&quot;&gt;`hange fire job`&lt;/span&gt;&lt;/div&gt;&lt;br style=&quot;color: rgb(197 , 200 , 198) ; font-family: &amp;#34;droid sans mono&amp;#34; , monospace , monospace , &amp;#34;droid sans fallback&amp;#34; ; font-size: 14px ; font-weight: 400&quot;&gt;&lt;div style=&quot;color: rgb(197 , 200 , 198) ; font-family: &amp;#34;droid sans mono&amp;#34; , monospace , monospace , &amp;#34;droid sans fallback&amp;#34; ; font-size: 14px ; font-weight: 400&quot;&gt;&lt;span style=&quot;color: rgb(154 , 168 , 58)&quot;&gt;&amp;nbsp; &amp;nbsp; ```txt&lt;/span&gt;&lt;/div&gt;&lt;div style=&quot;color: rgb(197 , 200 , 198) ; font-family: &amp;#34;droid sans mono&amp;#34; , monospace , monospace , &amp;#34;droid sans fallback&amp;#34; ; font-size: 14px ; font-weight: 400&quot;&gt;&lt;span style=&quot;color: rgb(154 , 168 , 58)&quot;&gt;&lt;/span&gt;&lt;span style=&quot;color: rgb(103 , 104 , 103)&quot;&gt;&amp;nbsp; &amp;nbsp; -&lt;/span&gt;&amp;nbsp;hangfire job&lt;span style=&quot;color: rgb(152 , 114 , 162)&quot;&gt;:&lt;/span&gt;&amp;nbsp;casinoDB&amp;nbsp;&lt;span style=&quot;color: rgb(103 , 104 , 103)&quot;&gt;--&amp;gt;&lt;/span&gt;&amp;nbsp;camp&lt;/div&gt;&lt;div style=&quot;color: rgb(197 , 200 , 198) ; font-family: &amp;#34;droid sans mono&amp;#34; , monospace , monospace , &amp;#34;droid sans fallback&amp;#34; ; font-size: 14px ; font-weight: 400&quot;&gt;&lt;span style=&quot;color: rgb(154 , 168 , 58)&quot;&gt;&lt;/span&gt;&lt;span style=&quot;color: rgb(103 , 104 , 103)&quot;&gt;&amp;nbsp; &amp;nbsp; -&lt;/span&gt;&amp;nbsp;table&amp;nbsp;&lt;span style=&quot;color: rgb(103 , 104 , 103)&quot;&gt;--&amp;gt;&lt;/span&gt;&amp;nbsp;esb&amp;nbsp;&lt;span style=&quot;color: rgb(103 , 104 , 103)&quot;&gt;--&amp;gt;&lt;/span&gt;&amp;nbsp;proxy&amp;nbsp;&lt;span style=&quot;color: rgb(103 , 104 , 103)&quot;&gt;--&amp;gt;&lt;/span&gt;&amp;nbsp;DW&amp;nbsp;&lt;span style=&quot;color: rgb(103 , 104 , 103)&quot;&gt;--&amp;gt;&lt;/span&gt;&amp;nbsp;agent&lt;span style=&quot;color: rgb(103 , 104 , 103)&quot;&gt;-&lt;/span&gt;job&amp;nbsp;&lt;span style=&quot;color: rgb(103 , 104 , 103)&quot;&gt;--&amp;gt;&lt;/span&gt;&amp;nbsp;camp&lt;/div&gt;&lt;div style=&quot;color: rgb(197 , 200 , 198) ; font-family: &amp;#34;droid sans mono&amp;#34; , monospace , monospace , &amp;#34;droid sans fallback&amp;#34; ; font-size: 14px ; font-weight: 400&quot;&gt;&lt;span style=&quot;color: rgb(154 , 168 , 58)&quot;&gt;&lt;/span&gt;&lt;span style=&quot;color: rgb(103 , 104 , 103)&quot;&gt;&amp;nbsp; &amp;nbsp; -&lt;/span&gt;&amp;nbsp;table&amp;nbsp;&lt;span style=&quot;color: rgb(103 , 104 , 103)&quot;&gt;--&amp;gt;&lt;/span&gt;&amp;nbsp;esb&amp;nbsp;&lt;span style=&quot;color: rgb(103 , 104 , 103)&quot;&gt;--&amp;gt;&lt;/span&gt;&amp;nbsp;proxy&amp;nbsp;&lt;span style=&quot;color: rgb(103 , 104 , 103)&quot;&gt;--&amp;gt;&lt;/span&gt;&amp;nbsp;connectorcasino data&amp;nbsp; service&amp;nbsp;&lt;span style=&quot;color: rgb(103 , 104 , 103)&quot;&gt;--&amp;gt;&lt;/span&gt;&amp;nbsp;camp&lt;/div&gt;&lt;div style=&quot;color: rgb(197 , 200 , 198) ; font-family: &amp;#34;droid sans mono&amp;#34; , monospace , monospace , &amp;#34;droid sans fallback&amp;#34; ; font-size: 14px ; font-weight: 400&quot;&gt;&lt;span style=&quot;color: rgb(154 , 168 , 58)&quot;&gt;&amp;nbsp; &amp;nbsp; ```&lt;/span&gt;&lt;/div&gt;&lt;br style=&quot;color: rgb(197 , 200 , 198) ; font-family: &amp;#34;droid sans mono&amp;#34; , monospace , monospace , &amp;#34;droid sans fallback&amp;#34; ; font-size: 14px ; font-weight: 400&quot;&gt;&lt;div style=&quot;color: rgb(197 , 200 , 198) ; font-family: &amp;#34;droid sans mono&amp;#34; , monospace , monospace , &amp;#34;droid sans fallback&amp;#34; ; font-size: 14px ; font-weight: 400&quot;&gt;&lt;span style=&quot;color: rgb(154 , 168 , 58)&quot;&gt;&amp;nbsp; - 作用:&amp;nbsp;&lt;/span&gt;&lt;span style=&quot;color: rgb(96 , 137 , 180)&quot;&gt;**wso2 需要的表**&lt;/span&gt;&lt;span style=&quot;color: rgb(154 , 168 , 58)&quot;&gt;&amp;nbsp;+&amp;nbsp;&lt;/span&gt;&lt;span style=&quot;color: rgb(96 , 137 , 180)&quot;&gt;**手机端数据的展示**&lt;/span&gt;&lt;/div&gt;&lt;/h1&gt;" style="text;html=1;strokeColor=none;fillColor=none;spacing=5;spacingTop=-20;whiteSpace=wrap;overflow=hidden;rounded=0;align=left;fontColor=#1D3557;" vertex="1" parent="WIyWlLk6GJQsqaUBKTNV-1">
          <mxGeometry x="30" y="620" width="700" height="340" as="geometry" />
        </mxCell>
      </root>
    </mxGraphModel>
  </diagram>
</mxfile>
